<svg width="28" height="27" viewBox="0 0 28 27" fill="none" xmlns="http://www.w3.org/2000/svg">
<path d="M3.5 27C2.5375 27 1.71383 26.6608 1.029 25.9824C0.344166 25.304 0.00116667 24.4875 0 23.5329V20.0658C0 19.5746 0.168 19.1632 0.504 18.8315C0.839999 18.4998 1.25533 18.3334 1.75 18.3323C2.24466 18.3311 2.66058 18.4975 2.99775 18.8315C3.33491 19.1655 3.50233 19.577 3.5 20.0658V23.5329H24.5V20.0658C24.5 19.5746 24.668 19.1632 25.004 18.8315C25.34 18.4998 25.7553 18.3334 26.25 18.3323C26.7446 18.3311 27.1606 18.4975 27.4977 18.8315C27.8349 19.1655 28.0023 19.577 28 20.0658V23.5329C28 24.4864 27.6576 25.3029 26.9727 25.9824C26.2879 26.662 25.4636 27.0012 24.5 27H3.5ZM12.25 5.93742L8.96874 9.18782C8.61874 9.53453 8.20341 9.70095 7.72274 9.68708C7.24208 9.67321 6.82616 9.49234 6.47499 9.14448C6.15416 8.79777 5.98616 8.39328 5.971 7.931C5.95583 7.46872 6.12383 7.06423 6.47499 6.71752L12.775 0.476751C12.95 0.303396 13.1396 0.180893 13.3437 0.10924C13.5479 0.0375864 13.7667 0.00118237 14 2.66703e-05C14.2333 -0.00112903 14.4521 0.035275 14.6562 0.10924C14.8604 0.183204 15.05 0.305708 15.225 0.476751L21.525 6.71752C21.875 7.06423 22.043 7.46872 22.029 7.931C22.015 8.39328 21.847 8.79777 21.525 9.14448C21.175 9.49119 20.7596 9.67205 20.279 9.68708C19.7983 9.7021 19.3824 9.53568 19.0312 9.18782L15.75 5.93742V18.3323C15.75 18.8234 15.582 19.2354 15.246 19.5683C14.91 19.9011 14.4947 20.067 14 20.0658C13.5053 20.0647 13.09 19.8982 12.754 19.5666C12.418 19.2349 12.25 18.8234 12.25 18.3323V5.93742Z" fill="#493021"/>
</svg>
